<?xml version="1.0" encoding="UTF-8" standalone="no"?>
<!-- Created with Inkscape (http://www.inkscape.org/) -->

<svg
   width="129.74503mm"
   height="129.74503mm"
   viewBox="0 0 129.74503 129.74503"
   version="1.1"
   id="svg1"
   xml:space="preserve"
   inkscape:version="1.3.2 (091e20e, 2023-11-25, custom)"
   sodipodi:docname="ICON.svg"
   inkscape:export-filename="ORA_icon.png"
   inkscape:export-xdpi="96"
   inkscape:export-ydpi="96"
   xmlns:inkscape="http://www.inkscape.org/namespaces/inkscape"
   xmlns:sodipodi="http://sodipodi.sourceforge.net/DTD/sodipodi-0.dtd"
   xmlns:xlink="http://www.w3.org/1999/xlink"
   xmlns="http://www.w3.org/2000/svg"
   xmlns:svg="http://www.w3.org/2000/svg"><sodipodi:namedview
     id="namedview1"
     pagecolor="#ffffff"
     bordercolor="#cccccc"
     borderopacity="1"
     inkscape:showpageshadow="0"
     inkscape:pageopacity="1"
     inkscape:pagecheckerboard="0"
     inkscape:deskcolor="#d1d1d1"
     inkscape:document-units="mm"
     showguides="true"
     inkscape:zoom="0.57260471"
     inkscape:cx="384.2092"
     inkscape:cy="175.51375"
     inkscape:window-width="1920"
     inkscape:window-height="1147"
     inkscape:window-x="-8"
     inkscape:window-y="-8"
     inkscape:window-maximized="1"
     inkscape:current-layer="layer1"><sodipodi:guide
       position="62.786758,314.98958"
       orientation="1,0"
       id="guide1"
       inkscape:locked="false" /></sodipodi:namedview><defs
     id="defs1"><linearGradient
       id="linearGradient24"
       inkscape:collect="always"><stop
         style="stop-color:#ffffff;stop-opacity:1"
         offset="0"
         id="stop24" /><stop
         style="stop-color:#ffffff;stop-opacity:0;"
         offset="1"
         id="stop25" /></linearGradient><linearGradient
       id="linearGradient22"
       inkscape:collect="always"><stop
         style="stop-color:#d1edf8;stop-opacity:1;"
         offset="0"
         id="stop22" /><stop
         style="stop-color:#17476a;stop-opacity:1"
         offset="1"
         id="stop23" /></linearGradient><linearGradient
       id="linearGradient20"
       inkscape:collect="always"><stop
         style="stop-color:#3dbbeb;stop-opacity:1;"
         offset="0"
         id="stop20" /><stop
         style="stop-color:#3dbbeb;stop-opacity:0;"
         offset="1"
         id="stop21" /></linearGradient><linearGradient
       inkscape:collect="always"
       xlink:href="#linearGradient20"
       id="linearGradient21"
       x1="313.99011"
       y1="226.09901"
       x2="316.27722"
       y2="148.9901"
       gradientUnits="userSpaceOnUse" /><linearGradient
       inkscape:collect="always"
       xlink:href="#linearGradient22"
       id="linearGradient23"
       x1="286.21783"
       y1="232.63367"
       x2="286.54456"
       y2="147.68317"
       gradientUnits="userSpaceOnUse" /><radialGradient
       inkscape:collect="always"
       xlink:href="#linearGradient24"
       id="radialGradient25"
       cx="263.34653"
       cy="117.62376"
       fx="263.34653"
       fy="117.62376"
       r="52.930691"
       gradientUnits="userSpaceOnUse"
       gradientTransform="matrix(1.5925927,0,0,1.5925927,-156.05721,-45.198021)" /></defs><g
     inkscape:label="Layer 1"
     inkscape:groupmode="layer"
     id="layer1"
     transform="translate(-40.716872,-90.534528)"><g
       id="g27"
       transform="matrix(0.43466096,0.43466096,-0.43466096,0.43466096,49.918346,-17.286778)"><circle
         style="fill:#071633;fill-opacity:1;stroke-width:5.29167;stroke-linecap:round"
         id="path6"
         cx="262.69308"
         cy="134.61386"
         r="105.53465" /><circle
         style="opacity:0.535176;fill:url(#radialGradient25);stroke-width:8.42747;stroke-linecap:round"
         id="path24"
         cx="263.34653"
         cy="142.12871"
         r="84.297028" /><path
         id="rect1"
         style="fill:url(#linearGradient21);fill-opacity:1;stroke-width:5.14863;stroke-linecap:round"
         d="m 207.1486,145.72289 v 78.49805 a 105.53465,105.53465 0 0 0 55.54441,15.92771 105.53465,105.53465 0 0 0 60.44541,-19.2903 v -75.13546 z" /><path
         id="rect2"
         style="fill:#8be3f9;fill-opacity:1;stroke-width:4.40902;stroke-linecap:round"
         d="m 222.6138,145.72289 v 86.29189 a 105.53465,105.53465 0 0 0 40.07921,8.13387 105.53465,105.53465 0 0 0 44.9802,-10.15907 v -84.26669 z" /><path
         id="rect3"
         style="fill:url(#linearGradient23);fill-opacity:1;stroke-width:3.41521;stroke-linecap:round"
         d="m 239.62568,145.72289 v 91.60061 a 105.53465,105.53465 0 0 0 23.06733,2.82515 105.53465,105.53465 0 0 0 27.96832,-3.89124 v -90.53452 z" /><path
         id="rect4"
         style="fill:#f9f9f9;fill-opacity:1;stroke-width:2.7244;stroke-linecap:round"
         d="m 248.9047,145.72289 v 93.43926 a 105.53465,105.53465 0 0 0 13.78831,0.9865 105.53465,105.53465 0 0 0 18.6893,-1.87275 v -92.55301 z" /><path
         id="rect5"
         style="fill:#b7e4fa;fill-opacity:1;stroke-width:2.14355;stroke-linecap:round"
         d="m 255.09089,145.72289 v 93.88212 a 105.53465,105.53465 0 0 0 7.60212,0.54364 105.53465,105.53465 0 0 0 12.50311,-0.89452 v -93.53124 z" /><path
         id="rect6"
         style="fill:#f9f9f9;fill-opacity:1;stroke-width:1.32937;stroke-linecap:round"
         d="m 261.27708,145.72289 v 94.32447 a 105.53465,105.53465 0 0 0 1.41593,0.10129 105.53465,105.53465 0 0 0 6.31693,-0.45165 v -93.97411 z" /><path
         style="fill:#fd653e;fill-opacity:1;stroke:none;stroke-width:5.29167;stroke-linecap:round;stroke-dasharray:none"
         d="m 289.25567,149.71061 5.31381,-12.24485 2.31035,-11.08968 3.46551,-15.2483 v -5.54484 l 8.54829,8.54829 11.32073,24.4897 -2.31035,27.95522 -5.31381,13.8621 -1.61724,2.54138 -1.84827,-1.15517 -2.31037,-7.16209 -2.07931,-6.23794 -2.0793,-4.62069 -3.69658,-4.15863 -5.08275,-5.54484 z"
         id="path16" /><path
         style="fill:#f9f9f9;stroke-width:1.67295"
         d="m 194.81981,102.74205 1.15936,-2.47858 2.63378,-0.742014 c 1.44859,-0.408116 2.91378,-0.979745 3.25598,-1.270286 0.99398,-0.843952 0.40331,-2.285464 -1.80729,-4.410609 l -2.00829,-1.930645 0.0532,-2.785107 c 0.0313,-1.63621 -0.24602,-3.191817 -0.6721,-3.770991 -0.76914,-1.045525 -1.18581,-0.952309 -5.78701,1.294543 -1.45032,0.708226 -2.03252,0.675436 -4.5499,-0.256295 -3.55075,-1.314184 -4.31935,-0.768519 -3.61822,2.568727 0.71714,3.413399 0.62546,3.928044 -1.09013,6.120442 -3.01142,3.848365 -2.77336,4.52427 1.94153,5.512445 3.14756,0.65968 3.14791,0.6599 4.78267,2.99473 2.55611,3.65076 3.68097,3.48391 5.70646,-0.84636 z"
         id="path25"
         sodipodi:nodetypes="ccssscsssssssssc" /><path
         style="fill:#f9f9f9;fill-opacity:1;stroke:none;stroke-width:5.29167;stroke-linecap:round;stroke-dasharray:none"
         d="m 243.98763,160.50742 41.08662,0.16337 3.92081,-10.29208 10.86384,-44.51732 -6.45297,-28.834163 -7.51483,-12.579207 -11.7624,-15.519802 -12.00743,-11.027227 -15.19306,17.235148 -14.70297,26.220295 -4.24752,27.690596 3.4307,18.54208 10.12869,29.0792 z"
         id="path11" /><path
         id="path12"
         style="fill:#b9dff4;fill-opacity:1;stroke:none;stroke-width:5.29167;stroke-linecap:round;stroke-dasharray:none"
         d="M 262.61875,38.357865 V 160.58141 l 22.45548,0.0894 3.92069,-10.29188 10.86394,-44.51769 -6.45284,-28.8339 -7.51479,-12.579077 -11.76259,-15.519983 z" /><path
         style="fill:#fd653e;fill-opacity:1;stroke:none;stroke-width:5.29167;stroke-linecap:round;stroke-dasharray:none"
         d="m 237.66708,70.234605 h 51.98285 L 279.4844,55.448374 261.69471,36.734546 249.21884,51.751814 Z"
         id="path14" /><path
         style="fill:#fd653e;fill-opacity:1;stroke:none;stroke-width:5.29167;stroke-linecap:round;stroke-dasharray:none"
         d="m 227.8004,111.12778 -13.40003,12.93795 -4.62069,11.55175 -1.61725,9.70346 1.61725,14.5552 2.54138,12.93795 5.3138,11.32072 1.61725,1.84827 4.6207,-12.01381 6.70001,-9.9345 4.85173,-6.93105 5.08277,-3.92759 -5.77588,-12.24485 -3.69655,-16.17244 z"
         id="path15" /><circle
         style="fill:#49c9f6;fill-opacity:1;stroke:none;stroke-width:5.29167;stroke-linecap:round;stroke-dasharray:none"
         id="path17"
         cx="261.99356"
         cy="99.345001"
         r="15.248303" /><path
         id="circle17"
         style="fill:#246895;fill-opacity:1;stroke:none;stroke-width:5.29167;stroke-linecap:round;stroke-dasharray:none"
         d="M 262.9178,84.128198 V 114.52738 A 15.248303,15.248303 0 0 0 277.24199,99.34484 15.248303,15.248303 0 0 0 262.9178,84.128198 Z" /><path
         style="fill:#4ba7d6;fill-opacity:1;stroke:none;stroke-width:5.29167;stroke-linecap:round;stroke-dasharray:none"
         d="m 270.31082,159.52959 -0.57759,-8.54829 -1.50172,-7.85519 -0.80862,-2.07931 c 0,0 4.7362,1.27069 6.93103,5.3138 2.19485,4.04311 3.58105,8.20174 3.58105,8.20174 0,0 8.54829,-10.85864 12.01381,-27.72419 3.46553,-16.86554 3.35002,-27.49315 0.6931,-36.387992 -2.6569,-8.894844 -8.94609,-20.221359 -8.94609,-20.221359 l 7.6754,-0.225228 2.65692,6.122424 4.7362,11.551745 3.34999,20.90866 -2.0793,15.36382 -4.38965,15.47933 -5.31381,12.36037 -3.81207,8.08622 -2.88795,1.03966 z"
         id="path18"
         sodipodi:nodetypes="ccccscssccccccccccc" /><path
         style="fill:#d32918;fill-opacity:1;stroke:none;stroke-width:5.29167;stroke-linecap:round;stroke-dasharray:none"
         d="m 295.26259,153.86923 c 0,0 4.62071,-10.05001 5.77588,-13.40001 1.15517,-3.35001 3.92758,-20.56211 3.92758,-20.56211 0,0 6.12243,11.6095 6.81553,18.42503 0.6931,6.81553 0.40431,19.11814 -2.25258,25.47159 -2.21272,5.29128 -2.94571,8.43278 -2.94571,8.43278 l 1.50172,9.47243 h 3.92761 l 3.69654,-7.62415 1.73279,-9.9345 2.31034,-9.9345 0.57758,-10.62761 -0.11551,-9.12588 -2.31035,-6.81553 -3.81209,-9.12587 -5.42932,-7.73967 -8.0862,-4.50518 -0.92416,7.9707 -4.0431,17.44314 -3.69657,11.08967 -2.07931,6.46898 z"
         id="path20"
         sodipodi:nodetypes="cscssccccccccccccccccc" /><path
         id="rect18"
         style="fill:#fd653e;fill-opacity:1;stroke:none;stroke-width:5.29167;stroke-linecap:round;stroke-dasharray:none"
         d="m 261.53132,135.61756 -2.19469,3.23443 -2.77245,11.08976 -1.27072,10.85877 0.0434,0.27854 h -14.46268 c -1.1262,0 -2.03244,0.90675 -2.03244,2.03295 v 7.61504 c 0,1.12619 0.90624,2.03295 2.03244,2.03295 h 16.29151 l 0.20722,1.32498 1.84847,9.12554 1.9637,4.04317 2.1947,0.23099 4.3894,-9.93428 0.66094,-4.7904 h 18.28725 c 1.1262,0 2.03244,-0.90676 2.03244,-2.03295 v -7.61504 c 0,-1.1262 -0.90624,-2.03295 -2.03244,-2.03295 H 270.0414 l 0.0382,-0.27854 -0.23099,-5.66064 -2.31046,-8.08632 -2.1947,-9.35654 z" /><path
         style="fill:#d32918;fill-opacity:1;stroke:none;stroke-width:5.29167;stroke-linecap:round;stroke-dasharray:none"
         d="m 281.80694,70.288366 c 0,0 -5.32926,-9.60207 -8.33271,-13.991732 -3.00344,-4.389663 -11.04748,-15.490096 -11.04748,-15.490096 7.07775,3.120893 15.28297,13.207556 23.82548,23.652195 l 3.23448,5.660355 z"
         id="path19"
         sodipodi:nodetypes="cscccc" /><path
         style="fill:#d32918;fill-opacity:1;stroke:none;stroke-width:5.29167;stroke-linecap:round;stroke-dasharray:none"
         d="m 260.43898,172.00547 c 0,0 -12.12933,0.92414 -12.70692,14.09313 -0.57758,13.16899 10.51209,26.80005 12.70692,28.07074 2.19483,1.27069 3.6388,0.17327 5.19829,-2.02156 1.55949,-2.19483 9.76123,-12.12933 9.70347,-22.58366 -0.0578,-10.45432 -3.98536,-15.88365 -6.23794,-16.9233 -2.2526,-1.03966 -9.18365,-0.69311 -9.18365,-0.69311 z"
         id="path22" /><path
         style="fill:#d32918;fill-opacity:1;stroke:none;stroke-width:5.29167;stroke-linecap:round;stroke-dasharray:none"
         d="m 261.76253,135.03989 c 0,0 2.77242,14.67072 2.6569,23.56556 -0.11552,8.89484 -2.77242,28.30177 -2.77242,28.30177 l 4.7362,-4.50518 2.65692,-8.54829 h 7.16209 l 11.3207,-0.11552 0.6931,-1.61724 -0.92414,-11.08968 -15.94141,-0.34655 -1.61724,-5.19828 -1.27069,-9.01036 -3.81209,-10.74313 z"
         id="path21" /><path
         style="fill:#feba8b;fill-opacity:1;stroke:none;stroke-width:5.29167;stroke-linecap:round;stroke-dasharray:none"
         d="m 251.65966,187.88912 c 0,0 0.7352,11.14083 5.14052,16.63452 l 4.9095,6.12242 c 0,0 3.58103,-2.42587 6.75776,-10.39657 3.17673,-7.97071 2.36811,-17.2121 2.36811,-17.2121 0,0 0.6931,1.38621 -2.07932,6.52673 -2.77241,5.14053 -4.44741,9.12588 -7.27759,8.43278 -2.83018,-0.69311 -4.27415,-2.59914 -5.19829,-5.66036 -0.92414,-3.06121 -0.51982,-2.54138 -1.21293,-5.25604 -0.6931,-2.71466 -1.32845,-1.84828 -2.02156,-1.675 -0.6931,0.17327 -1.3862,2.48362 -1.3862,2.48362 z"
         id="path23"
         sodipodi:nodetypes="cscscsssssc" /><path
         id="path1"
         style="color:#000000;fill:#000000;fill-opacity:1;stroke-linecap:round;-inkscape-stroke:none"
         d="m 260.43077,35.089848 c 0,0 -8.78135,8.727805 -17.53743,21.660176 -8.75606,12.932371 -17.66766,30.145387 -17.66766,47.677706 0,1.14809 0.0337,2.29284 0.0827,3.43545 -7.17832,6.71574 -13.97081,14.63594 -17.05736,26.12296 -3.21704,11.97264 -2.38091,27.53805 5.34386,49.30086 0.54086,1.52375 1.33365,2.77185 2.44533,3.64061 1.11168,0.86877 2.56692,1.26437 3.87676,1.0821 2.6197,-0.36455 4.42764,-2.55136 4.79713,-5.11493 1.00854,-6.99739 3.58956,-14.35859 11.52229,-22.31905 -0.33599,0.64186 -0.5302,1.36527 -0.5302,2.12752 v 8.51369 c 0,2.54622 2.13154,4.6793 4.67775,4.6793 h 14.23066 c 0.20784,1.05511 0.42576,2.09824 0.66197,3.10007 0.66308,2.81226 1.41386,5.33006 2.28875,7.31997 0.43744,0.99495 0.8906,1.85865 1.52187,2.64066 0.63127,0.78201 1.60905,1.73411 3.22616,1.72289 1.75342,-0.0122 2.52814,-1.01198 3.10782,-1.75389 0.57967,-0.7419 1.02423,-1.5677 1.47227,-2.53318 0.89607,-1.93097 1.74002,-4.40966 2.5063,-7.19336 0.29275,-1.06348 0.56711,-2.17548 0.82941,-3.30316 h 16.32045 c 2.54621,0 4.67775,-2.13308 4.67775,-4.6793 v -8.51369 c 0,-2.01904 -1.34221,-3.77319 -3.16673,-4.41472 0.59832,-1.13249 1.25458,-2.41282 1.96939,-3.88917 10.53752,9.1447 13.65503,17.4882 14.79134,25.3721 0.36948,2.56354 2.179,4.7509 4.79868,5.11545 1.30986,0.18227 2.76353,-0.21335 3.87521,-1.08211 1.11169,-0.86876 1.90447,-2.11892 2.44533,-3.64267 7.72477,-21.76284 8.56088,-37.3282 5.34386,-49.30087 -3.21705,-11.97267 -10.45317,-20.08572 -17.96324,-26.98233 -0.28889,-0.23986 -0.62553,-0.41549 -0.98754,-0.51521 C 301.9678,85.414508 292.47598,68.566394 283.12809,56.062728 273.59519,43.3116 264.03624,34.973059 264.03624,34.973059 c -1.01402,-0.97133 -2.71421,-0.745877 -3.60547,0.116789 z m 1.98024,5.662187 c 2.28528,2.089173 8.78568,8.190556 16.47858,18.480525 9.18082,12.280204 18.18752,28.744579 18.18752,45.19517 0,26.24606 -11.85318,48.29964 -14.92467,53.59777 h -10.0893 c -0.21218,-7.89909 -1.04991,-13.6287 -2.33526,-17.72295 -0.73681,-2.34693 -1.6125,-4.17268 -2.75797,-5.58002 -1.14546,-1.40736 -2.70337,-2.43321 -4.44934,-2.58176 -1.97253,-0.16781 -3.54412,1.04863 -4.59352,2.44895 -1.04939,1.40032 -1.8549,3.21409 -2.56057,5.57847 -1.2338,4.1339 -2.09963,9.96872 -2.29805,17.85731 h -7.20369 c -2.83505,-5.0861 -15.34791,-28.8453 -15.34791,-53.59777 0,-15.705492 8.3017,-32.223937 16.75764,-44.713029 7.05236,-10.416054 12.99548,-16.739543 15.13654,-18.962666 z m 0.15658,39.663728 c -10.37286,0 -18.83813,8.465264 -18.83813,18.838127 0,10.37286 8.46527,18.83968 18.83813,18.83968 10.37286,0 18.83761,-8.46682 18.83761,-18.83968 0,-10.372863 -8.46475,-18.838127 -18.83761,-18.838127 z m 0,5.29115 c 7.51304,0 13.54698,6.033937 13.54698,13.546977 0,7.51304 -6.03394,13.54698 -13.54698,13.54698 -7.51304,0 -13.54698,-6.03394 -13.54698,-13.54698 0,-7.51304 6.03394,-13.546977 13.54698,-13.546977 z m 39.62187,24.386107 c 6.19598,6.02586 11.45353,12.71932 13.9852,22.14129 2.85971,10.64281 2.27926,25.02987 -5.22036,46.15842 -0.27068,0.76259 -0.53356,1.02583 -0.65836,1.13843 -0.009,-0.03 -0.17249,-0.0739 -0.23616,-0.51573 -1.30892,-9.08147 -5.47718,-19.34848 -17.73742,-29.60129 4.20077,-9.69448 8.90874,-23.70008 9.8671,-39.32112 z m -76.31575,4.61212 c 1.82129,15.06999 7.15627,28.92809 11.29543,37.87211 -12.2251,10.24018 -16.38413,20.49331 -17.69142,29.56357 -0.0635,0.44052 -0.22827,0.48308 -0.23823,0.51366 -0.12523,-0.1133 -0.38616,-0.37584 -0.65629,-1.13688 -7.49964,-21.12855 -8.08058,-35.51561 -5.22087,-46.15842 2.32655,-8.6586 6.96843,-15.00371 12.51138,-20.65404 z m 36.42413,22.89421 c 0.11156,0.0388 0.19052,0.001 0.56637,0.46302 0.5263,0.64664 1.21097,1.90417 1.81436,3.82613 1.20677,3.84392 2.11921,10.28589 2.14664,19.7621 0.0129,4.46255 -1.10139,10.96359 -2.52749,16.14423 -0.66058,2.39969 -1.3859,4.41235 -2.0407,5.90042 -0.60896,-1.48058 -1.2611,-3.4994 -1.83038,-5.91385 -1.23299,-5.22935 -2.11099,-11.77784 -2.11099,-16.22279 0,-9.36236 0.94014,-15.92093 2.12081,-19.87682 0.59033,-1.97794 1.26148,-3.29963 1.72495,-3.91811 0.097,-0.12945 0.0822,-0.10473 0.13643,-0.16433 z m -22.74693,19.88303 c 0.12605,0.24721 0.18696,0.34427 0.30696,0.57619 -0.48377,0.0564 -0.94581,0.19028 -1.37615,0.38706 0.35435,-0.3208 0.69658,-0.64048 1.06919,-0.96325 z m 47.72473,0.60771 c 0.0264,0.004 0.0528,0.008 0.0791,0.0124 -0.0262,-0.005 -0.0527,-0.008 -0.0791,-0.0124 z m -50.60518,1.80713 c -0.007,0.01 -0.0148,0.0196 -0.0222,0.0294 0.007,-0.01 0.0147,-0.0196 0.0222,-0.0294 z m 4.32687,3.41943 h 12.0649 c 0.0829,2.26952 0.31845,4.75966 0.66611,7.28689 h -12.73101 z m 31.07821,0 h 13.86117 v 7.28689 h -14.6482 c 0.41421,-2.50529 0.69434,-4.98749 0.78703,-7.28689 z"
         sodipodi:nodetypes="csscssssscssscssssssscsssccsssssccscccssccsssssccsscsssssssssscssccccccsccscccssscssssccccccccccccccccccccc" /><circle
         style="fill:#f2f2f2;fill-opacity:1;stroke:none;stroke-width:1.74385;stroke-linecap:round;stroke-dasharray:none"
         id="circle18"
         cx="261.97833"
         cy="92.060387"
         r="5.0250096" /><path
         style="fill:#f9f9f9;stroke-width:0.897496"
         d="m 224.64148,68.398821 0.62197,-1.329697 1.41296,-0.398072 c 0.77713,-0.218944 1.56317,-0.525609 1.74675,-0.681477 0.53324,-0.452759 0.21636,-1.226095 -0.96957,-2.366183 l -1.0774,-1.035744 0.0285,-1.494141 c 0.0168,-0.877786 -0.13198,-1.712331 -0.36056,-2.023044 -0.41262,-0.560898 -0.63616,-0.51089 -3.10459,0.694491 -0.77806,0.379946 -1.0904,0.362355 -2.44091,-0.137496 -1.90489,-0.705028 -2.31722,-0.412292 -1.94108,1.378059 0.38472,1.831204 0.33554,2.107298 -0.58483,3.283466 -1.61555,2.064553 -1.48784,2.427159 1.04158,2.957291 1.68859,0.353902 1.68878,0.35402 2.56579,1.606599 1.37129,1.958543 1.97475,1.869032 3.06137,-0.454052 z"
         id="path26"
         sodipodi:nodetypes="ccssscsssssssssc" /><path
         style="fill:#f9f9f9;stroke-width:1.18567"
         d="m 190.11844,148.20844 0.82167,-1.75663 1.86664,-0.5259 c 1.02666,-0.28924 2.06509,-0.69436 2.30761,-0.90028 0.70446,-0.59813 0.28583,-1.61978 -1.28088,-3.12594 l -1.42334,-1.3683 0.0376,-1.97389 c 0.0222,-1.15964 -0.17436,-2.26214 -0.47633,-2.67261 -0.54511,-0.741 -0.84042,-0.67493 -4.10143,0.91748 -1.02789,0.50193 -1.44052,0.4787 -3.22466,-0.18165 -2.51652,-0.9314 -3.06124,-0.54467 -2.56433,1.82054 0.50825,2.41917 0.44328,2.78392 -0.77261,4.33774 -2.13428,2.72745 -1.96557,3.20648 1.37602,3.90684 2.23077,0.46753 2.23102,0.46769 3.38963,2.12246 1.81159,2.5874 2.60881,2.46915 4.04433,-0.59986 z"
         id="path27"
         sodipodi:nodetypes="ccssscsssssssssc" /></g></g></svg>
